<svg width="80" height="80" fill="none" xmlns="http://www.w3.org/2000/svg"><path d="M6.667 59.754c0-2.025.516-4.016 1.499-5.786l20.62-37.115a12.828 12.828 0 0 1 13.73-6.35c3.69.738 6.87 3.06 8.699 6.35l20.62 37.115c.983 1.77 1.498 3.761 1.498 5.786 0 6.579-5.333 11.913-11.913 11.913H18.58c-6.58 0-11.913-5.334-11.913-11.913z" stroke="url(#a)" stroke-width="5"/><path d="M40 30v13.333" stroke="url(#b)" stroke-width="5" stroke-linecap="round" stroke-linejoin="round"/><path d="M40 53.333V55" stroke="url(#c)" stroke-width="5" stroke-linecap="round" stroke-linejoin="round"/><defs><linearGradient id="a" x1="6.667" y1="40.683" x2="73.431" y2="41.63" gradientUnits="userSpaceOnUse"><stop stop-color="#CE0000"/><stop offset=".288" stop-color="#C65D2F"/><stop offset="1" stop-color="#D11616"/></linearGradient><linearGradient id="b" x1="40.498" y1="43.333" x2="42.763" y2="30.374" gradientUnits="userSpaceOnUse"><stop stop-color="#CE0000"/><stop offset=".288" stop-color="#C65D2F"/><stop offset="1" stop-color="#D11616"/></linearGradient><linearGradient id="c" x1="39.502" y1="55" x2="39.466" y2="53.331" gradientUnits="userSpaceOnUse"><stop stop-color="#CE0000"/><stop offset=".288" stop-color="#C65D2F"/><stop offset="1" stop-color="#D11616"/></linearGradient></defs></svg>