<svg width="80" height="80" viewBox="0 0 80 80" fill="none" xmlns="http://www.w3.org/2000/svg">
<path d="M6.66675 59.7536C6.66675 57.7291 7.18271 55.7379 8.16592 53.9682L28.7856 16.8527C30.6134 13.5627 33.7936 11.2413 37.4841 10.5032V10.5032C39.145 10.171 40.8552 10.171 42.516 10.5032V10.5032C46.2065 11.2413 49.3868 13.5627 51.2145 16.8527L71.8342 53.9682C72.8175 55.7379 73.3334 57.7291 73.3334 59.7536V59.7536C73.3334 66.333 67.9998 71.6667 61.4204 71.6667H18.5798C12.0004 71.6667 6.66675 66.333 6.66675 59.7536V59.7536Z" stroke="url(#paint0_linear_3039_5)" stroke-width="5"/>
<path d="M40 30L40 43.3333" stroke="url(#paint1_linear_3039_5)" stroke-width="5" stroke-linecap="round" stroke-linejoin="round"/>
<path d="M40 53.3333L40 55" stroke="url(#paint2_linear_3039_5)" stroke-width="5" stroke-linecap="round" stroke-linejoin="round"/>
<defs>
<linearGradient id="paint0_linear_3039_5" x1="6.66675" y1="40.6834" x2="73.4307" y2="41.6298" gradientUnits="userSpaceOnUse">
<stop stop-color="#CE0000"/>
<stop offset="0.288281" stop-color="#C65D2F"/>
<stop offset="1" stop-color="#D11616"/>
</linearGradient>
<linearGradient id="paint1_linear_3039_5" x1="40.4976" y1="43.3333" x2="42.7632" y2="30.3739" gradientUnits="userSpaceOnUse">
<stop stop-color="#CE0000"/>
<stop offset="0.288281" stop-color="#C65D2F"/>
<stop offset="1" stop-color="#D11616"/>
</linearGradient>
<linearGradient id="paint2_linear_3039_5" x1="39.5024" y1="55" x2="39.466" y2="53.3314" gradientUnits="userSpaceOnUse">
<stop stop-color="#CE0000"/>
<stop offset="0.288281" stop-color="#C65D2F"/>
<stop offset="1" stop-color="#D11616"/>
</linearGradient>
</defs>
</svg>
