<svg width="80" height="80" fill="none" xmlns="http://www.w3.org/2000/svg"><rect width="80" height="80" rx="8" fill="#1D324B"/><g clip-path="url(#a)" stroke="#fff" stroke-width="2" stroke-linecap="round" stroke-linejoin="round"><path d="M50.833 29.583c-1.758-2.01-3.985-3.369-6.403-3.907-2.418-.54-4.918-.233-7.187.88-2.27 1.112-4.207 2.981-5.569 5.373-1.362 2.392-2.089 5.2-2.089 8.071 0 2.872.727 5.68 2.09 8.071 1.361 2.392 3.299 4.261 5.568 5.374 2.269 1.112 4.77 1.418 7.187.88 2.418-.54 4.645-1.899 6.403-3.908M42.083 35.833H25.417m0 8.334h16.666"/></g><defs><clipPath id="a"><path fill="#fff" transform="translate(15 15)" d="M0 0h50v50H0z"/></clipPath></defs></svg>