<svg width="80" height="80" fill="none" xmlns="http://www.w3.org/2000/svg"><rect width="80" height="80" rx="8" fill="#2C4D54"/><g clip-path="url(#a)"><path d="M44.094 55.813v-9.188a1.532 1.532 0 0 0-1.532-1.531h-6.124a1.532 1.532 0 0 0-1.532 1.531v9.188a1.531 1.531 0 0 1-1.531 1.53h-9.188a1.531 1.531 0 0 1-1.53-1.53V38.106a1.59 1.59 0 0 1 .497-1.129l15.312-13.915a1.531 1.531 0 0 1 2.068 0l15.312 13.915a1.588 1.588 0 0 1 .498 1.13v17.705a1.531 1.531 0 0 1-1.532 1.53h-9.187a1.531 1.531 0 0 1-1.531-1.53z" stroke="#fff" stroke-width="1.531" stroke-linecap="round" stroke-linejoin="round"/></g><defs><clipPath id="a"><path fill="#fff" transform="translate(15 16)" d="M0 0h49v49H0z"/></clipPath></defs></svg>